PathFileType	4	(X/Y/Z)	/Users/niels/Desktop/University/Third Semester/Perception and Action/Exam/Gymnastics Motion Tracking/Code for Gym Tracking/Analyzed Data/Webcam_Backflip/id12_1_baseline_Sports2D/id12_1_baseline_Sports2D_px_person00.trc
DataRate	CameraRate	NumFrames	NumMarkers	Units	OrigDataRate	OrigDataStartFrame	OrigNumFrames
29.705882352941178	29.705882352941178	7	22	m	29.705882352941178	0	102
Frame#	Time	Hip			RHip			RKnee			RAnkle			RBigToe			RSmallToe			RHeel			LHip			LKnee			LAnkle			LBigToe			LSmallToe			LHeel			Neck			Head			Nose			RShoulder			RElbow			RWrist			LShoulder			LElbow			LWrist		
		X1	Y1	Z1	X2	Y2	Z2	X3	Y3	Z3	X4	Y4	Z4	X5	Y5	Z5	X6	Y6	Z6	X7	Y7	Z7	X8	Y8	Z8	X9	Y9	Z9	X10	Y10	Z10	X11	Y11	Z11	X12	Y12	Z12	X13	Y13	Z13	X14	Y14	Z14	X15	Y15	Z15	X16	Y16	Z16	X17	Y17	Z17	X18	Y18	Z18	X19	Y19	Z19	X20	Y20	Z20	X21	Y21	Z21	X22	Y22	Z22
0	0.0	1.0432953670601277	-0.5490268105742269	0.0	1.0390483851611585	-0.5554015074650986	0.0	1.2171051707087934	-0.6365581251954412	0.0	1.2240561677205342	-0.8131696985196497	0.0	1.1175619541939315	-0.9599527032958675	0.0	1.2789499583336674	-0.9705866669937979	0.0	1.2219448732872575	-0.831437334448597	0.0	1.0624046289420102	-0.5490306539732642	0.0	1.0458213196235853	-0.7567711821780374	0.0	1.014307390791589	-0.9462208495420367	0.0	1.108758953684562	-0.9653384427755783	0.0	1.1014390789361481	-0.9589697951095393	0.0	0.996579066029369	-0.9695829114941696	0.0	0.9987028362150597	-0.2728915709514706	0.0	1.0220839480775648	-0.14970882515870698	0.0	1.036936277760218	-0.2197970960959321	0.0	0.9498624358123785	-0.32386217136022044	0.0	0.9583808990983648	-0.4683070011421794	0.0	0.9966543870201965	-0.6000115270320572	0.0	1.017819809289882	-0.3217441282634769	0.0	1.0517953426980038	-0.453448988230999	0.0	1.1388970056096814	-0.5150406113719628	0.0
1	0.033663366336633666	1.0431535474287943	-0.546870275819134	0.0	1.0371975914994152	-0.5536702222807024	0.0	1.2284665483459813	-0.60925845238417	0.0	1.2155063075295847	-0.7758291523201646	0.0	1.213806230492585	-0.8545672759379426	0.0	1.3021767342120214	-0.8621606259405539	0.0	1.2550370933859363	-0.8025451744841821	0.0	1.0609251319518185	-0.5469821242040811	0.0	1.060263955343131	-0.7465420955307225	0.0	1.0287037083561343	-0.9366293235454766	0.0	1.1210368765243144	-0.9683635859922494	0.0	1.1087962382449232	-0.9516218292598129	0.0	1.0158011974599948	-0.9583369455236619	0.0	0.9976047954225511	-0.27393072049764	0.0	1.0219234364532956	-0.15070883635507748	0.0	1.0359303951418362	-0.22108474455885027	0.0	0.9497052533014656	-0.324945576373528	0.0	0.947977300610756	-0.46754871298788225	0.0	0.9719351660002135	-0.6000818043159047	0.0	1.02002110005516	-0.3220150563267972	0.0	1.0553875546964089	-0.4508390993492748	0.0	1.1469515086489006	-0.5014838102100594	0.0
2	0.06732673267326733	1.043449590562714	-0.5447554768417303	0.0	1.035744124485263	-0.5520412953911099	0.0	1.2375930661558614	-0.5860485013908696	0.0	1.1979121065979856	-0.74262378729438	0.0	1.3034292730120007	-0.7592475895021549	0.0	1.3342692580080906	-0.7635169346344677	0.0	1.2758308344448461	-0.7778851608927653	0.0	1.0600690953649696	-0.5448148266743859	0.0	1.06786462772399	-0.7399053727701299	0.0	1.0356074671830275	-0.9318448498814251	0.0	1.1349956290431524	-0.9698761497235233	0.0	1.1135994920774401	-0.9499742856029725	0.0	1.0243320393996895	-0.9536079023186083	0.0	0.9966228567630022	-0.27505351543223944	0.0	1.0218889339616963	-0.151723012207732	0.0	1.034960642399344	-0.22243717192301057	0.0	0.949597473851742	-0.32611434043437065	0.0	0.9379709758100085	-0.46697011499108587	0.0	0.9481337409413716	-0.6001861122034511	0.0	1.0217253297302231	-0.3223660234496305	0.0	1.0586752983457366	-0.44828483592104623	0.0	1.1535245266512784	-0.48805636543577224	0.0
3	0.100990099009901	1.0446357274774354	-0.5427050056846429	0.0	1.0352325359092802	-0.5504622610085642	0.0	1.2428785999390604	-0.5701847161153032	0.0	1.1686471116512671	-0.7190576512330207	0.0	1.376734291953505	-0.6886415042243752	0.0	1.3724847691224913	-0.6899759562205152	0.0	1.273817534264744	-0.7626847959786897	0.0	1.0604995928063872	-0.5424664054810572	0.0	1.0699799616988568	-0.7341031700083284	0.0	1.037967551401517	-0.9300832969451658	0.0	1.1600774063591313	-0.9676849633858448	0.0	1.122118690652442	-0.9539638567168569	0.0	1.0221409364752188	-0.9554915704142067	0.0	0.9958030014533717	-0.276262630309002	0.0	1.0220460022061295	-0.15275115058257008	0.0	1.0339759155148847	-0.22380947863068545	0.0	0.9495651648785534	-0.3272553955927375	0.0	0.9287940656840347	-0.46649864516187584	0.0	0.9261005412694134	-0.6001378318773257	0.0	1.0230504152296724	-0.32278354384665947	0.0	1.0619120507820867	-0.4457234150482779	0.0	1.1581270382474673	-0.4752971001831379	0.0
4	0.13465346534653466	1.0469495735525436	-0.5406253724258933	0.0	1.0360435722976575	-0.5486912625679617	0.0	1.2424346627378506	-0.5643096700373794	0.0	1.129752975705072	-0.7127741606037988	0.0	1.4255414230666312	-0.6576595998229156	0.0	1.4062087101892307	-0.6575694009533154	0.0	1.2426061364788978	-0.7629838505659552	0.0	1.0626947333018364	-0.5398397757204775	0.0	1.0735469694245061	-0.7221748181042985	0.0	1.0460321512784037	-0.9254503610456651	0.0	1.2078630212011947	-0.9591325227858255	0.0	1.145875582578637	-0.9599268815834864	0.0	1.0156825525558826	-0.960065474145951	0.0	0.9951358049819744	-0.2774992197050037	0.0	1.0223604040320267	-0.15377731253484347	0.0	1.0328720763332904	-0.22510481801795326	0.0	0.9495278193870067	-0.3281904039953411	0.0	0.9208142704463633	-0.46591345064626066	0.0	0.9065471426419712	-0.5996558689795806	0.0	1.024554082686058	-0.32324686381925755	0.0	1.0656002619598168	-0.4430353316781067	0.0	1.1611382746564813	-0.46395485492450333	0.0
5	0.16831683168316833	1.0501669795418218	-0.5383764890018928	0.0	1.038064483796881	-0.546573389869095	0.0	1.2342309210782427	-0.5698655017626265	0.0	1.087074550577214	-0.7290990610734076	0.0	1.4476284523204497	-0.6710255619827638	0.0	1.426046772310168	-0.6713956039877622	0.0	1.185648060899547	-0.7828010970285204	0.0	1.0666454086765973	-0.5368833510901748	0.0	1.0841926767095522	-0.6995878161369196	0.0	1.0679732527038581	-0.9135546736143851	0.0	1.2793465315833403	-0.9423417879694621	0.0	1.1912539167239613	-0.9649277420878464	0.0	1.009875440453072	-0.9642060497686927	0.0	0.9946192465868543	-0.27873865169265244	0.0	1.0226944245794614	-0.15475885022789287	0.0	1.0316039754948616	-0.22622726441023286	0.0	0.9492776150638701	-0.3288846701620131	0.0	0.9142327396664355	-0.465098393719462	0.0	0.8900388915832945	-0.5986301095846703	0.0	1.0265864132238243	-0.32381644197944115	0.0	1.0698739772186059	-0.44030112674773614	0.0	1.1630756639559923	-0.4546359401021257	0.0
6	0.201980198019802	1.0536723095343008	-0.5360074241279614	0.0	1.0407411922730108	-0.5443366458208733	0.0	1.2177735065111386	-0.5860205910591939	0.0	1.051845206555714	-0.7636350759801684	0.0	1.4471061377717669	-0.7172994499895667	0.0	1.4289880415754848	-0.7193933198317148	0.0	1.120178558341373	-0.8196549192233	0.0	1.0716918500716903	-0.5338429139989654	0.0	1.103385420365821	-0.6687278530721019	0.0	1.1054011393073189	-0.8944690264905679	0.0	1.3587098097359809	-0.9184983195881323	0.0	1.252318406290588	-0.9678840937596023	0.0	1.0064093775960286	-0.966783264991579	0.0	0.994277748323704	-0.28003309820687633	0.0	1.0228915864732835	-0.15566579397002828	0.0	1.030255881952094	-0.2271413659997378	0.0	0.9486347224620755	-0.3294388849788943	0.0	0.9091229688731642	-0.4641211808632844	0.0	0.8770228042318277	-0.5972066374695255	0.0	1.0289901888860045	-0.324580493923805	0.0	1.0744043472365268	-0.43788923891437326	0.0	1.1642497211353209	-0.4476443285810389	0.0
